<?xml version="1.0" ?><svg id="air-plane-take-off" style="enable-background:new 0 0 16 10.511;" version="1.1" viewBox="0 0 16 10.511" xml:space="preserve" xmlns="http://www.w3.org/2000/svg" xmlns:xlink="http://www.w3.org/1999/xlink"><path d="M4.189,6.717c0.428,0,0.864-0.09,1.28-0.279l9.395-4.27l-1.145-1.145c-0.967-0.967-2.419-1.282-3.704-0.802L4.126,2.43  L3.099,1.403l-2.77,1.385l1.112,2.225C1.981,6.092,3.06,6.717,4.189,6.717z M2.901,2.62l0.973,0.973l6.493-2.435  c0.914-0.345,1.953-0.12,2.645,0.573l0.124,0.124L5.055,5.528C4.034,5.995,2.838,5.57,2.336,4.566L1.671,3.235L2.901,2.62z"/><rect height="1" width="11" y="9.511"/><rect height="1" width="4" x="12" y="9.511"/></svg>